<svg width="200" height="200" viewBox="0 0 200 200" xmlns="http://www.w3.org/2000/svg">
  <!-- Transparent background -->
  <rect width="200" height="200" fill="transparent"/>
  
  <!-- White quote icons -->
  <!-- First quote mark -->
  <path d="M20 80 C20 50, 40 20, 70 20 C100 20, 130 50, 130 80 C130 110, 100 140, 70 140 C60 140, 50 130, 50 120 C50 110, 60 100, 70 100 C80 100, 90 110, 90 120 L90 130 C90 140, 80 150, 70 150 C40 150, 20 120, 20 90 Z" fill="white"/>
  
  <!-- Second quote mark -->
  <path d="M120 80 C120 50, 140 20, 170 20 C200 20, 230 50, 230 80 C230 110, 200 140, 170 140 C160 140, 150 130, 150 120 C150 110, 160 100, 170 100 C180 100, 190 110, 190 120 L190 130 C190 140, 180 150, 170 150 C140 150, 120 120, 120 90 Z" fill="white"/>
</svg>